Coordinates
version=1
nRows=7
nColumns=40
inDegrees=yes

Units are S.I. units (second, meters, Newtons, ...)
Angles are in degrees.

endheader
time	pelvis_tilt	pelvis_list	pelvis_rotation	pelvis_tx	pelvis_ty	pelvis_tz	hip_flexion_r	hip_adduction_r	hip_rotation_r	knee_angle_r	knee_angle_r_beta	ankle_angle_r	subtalar_angle_r	mtp_angle_r	hip_flexion_l	hip_adduction_l	hip_rotation_l	knee_angle_l	knee_angle_l_beta	ankle_angle_l	subtalar_angle_l	mtp_angle_l	lumbar_extension	lumbar_bending	lumbar_rotation	arm_flex_r	arm_add_r	arm_rot_r	elbow_flex_r	pro_sup_r	wrist_flex_r	wrist_dev_r	arm_flex_l	arm_add_l	arm_rot_l	elbow_flex_l	pro_sup_l	wrist_flex_l	wrist_dev_l
     25.92500000	     -7.10130471	     -4.86241991	      8.51025304	      0.89374513	      0.91483021	      0.48531715	      0.84320536	      2.75873829	    -16.86658034	     16.40658450	     16.40658450	     18.36791280	     -6.75279355	     -0.30637372	     30.69606616	     -4.21248917	      4.30963257	     24.63644318	     24.63644318	      4.37175223	    -12.78015304	      1.04775972	     -8.85648617	      0.48647442	      4.26119002	     51.14037486	    -17.04327257	     -2.20316432	     96.34490491	     44.54620190	      0.00000000	      0.00000000	     -2.48079212	     -8.01747766	     -5.45072735	     37.61038442	     46.12177373	      0.00000000	      0.00000000
     25.94314286	     -7.12997331	     -4.86068595	      8.29549368	      0.89523291	      0.91606015	      0.48133827	      0.52438794	      2.39704084	    -17.04223878	     16.65938203	     16.65938203	     17.89168694	     -6.28627702	     -0.62653312	     30.14315317	     -4.09515473	      4.10904843	     24.63206965	     24.63206965	      4.99621195	    -12.69966367	      1.10996896	     -8.65811073	      0.47450182	      4.34116826	     50.85077004	    -16.67271848	     -2.39264483	     94.26134135	     44.63036269	      0.00000000	      0.00000000	     -1.92007355	     -8.16925763	     -5.77986689	     38.58441795	     46.16960525	      0.00000000	      0.00000000
     25.96128571	     -7.11132095	     -4.96265808	      8.10540214	      0.89668905	      0.91731810	      0.47729017	      0.25773206	      2.16823859	    -17.00946216	     17.03844365	     17.03844365	     17.41146006	     -6.19216824	     -0.60886721	     29.58265850	     -4.05473703	      4.01660732	     24.65071139	     24.65071139	      5.46593942	    -12.79458354	      0.99247823	     -8.58949936	      0.68111643	      4.33321790	     50.15866829	    -16.32285644	     -2.23311308	     93.68321894	     44.64234997	      0.00000000	      0.00000000	     -1.11455612	     -8.35424976	     -5.82942492	     39.00320421	     46.18739203	      0.00000000	      0.00000000
     25.97942857	     -7.07703949	     -4.84709670	      7.82080843	      0.89808914	      0.91856902	      0.47309217	      0.15003842	      1.56268689	    -17.14819232	     17.80955137	     17.80955137	     16.71241513	     -5.95931896	     -1.92914106	     28.87218079	     -3.87687145	      3.56094215	     24.54095373	     24.54095373	      6.14417441	    -12.50472703	      1.24441590	     -8.38570991	      0.63024253	      3.69648131	     50.41045181	    -14.91771845	     -2.54949857	     88.87559581	     44.83150758	      0.00000000	      0.00000000	     -1.10847056	     -8.68410000	     -5.84930929	     40.38080982	     46.19123248	      0.00000000	      0.00000000
     25.99757143	     -7.03418532	     -4.79594021	      7.52024534	      0.89938540	      0.91974425	      0.46892868	      0.21648253	      1.02637855	    -17.03016696	     18.87532284	     18.87532284	     16.20325251	     -6.12683557	     -2.44367879	     28.17533854	     -3.74418545	      3.18684103	     24.41811730	     24.41811730	      6.58793941	    -12.44660327	      1.21440044	     -8.32100606	      0.69829529	      3.84041280	     49.64142263	    -14.86208913	     -2.55714198	     87.02739085	     44.89578140	      0.00000000	      0.00000000	     -0.24324126	     -8.87761219	     -5.79292509	     41.00390625	     46.19790144	      0.00000000	      0.00000000
     26.01571429	     -6.91966657	     -4.73768192	      7.22824587	      0.90063478	      0.92087387	      0.46472206	      0.29852749	      0.46095962	    -16.85141150	     20.06720489	     20.06720489	     15.43315097	     -6.43861914	     -3.84859411	     27.44368592	     -3.59822816	      2.83389867	     24.37367720	     24.37367720	      7.11824487	    -12.40294730	      1.33987676	     -8.25699834	      0.80827524	      3.39779043	     49.29811645	    -13.90321262	     -2.73338586	     83.54820207	     45.02683665	      0.00000000	      0.00000000	      0.45397159	     -9.31402753	     -5.09044968	     41.32196914	     46.13108689	      0.00000000	      0.00000000
     26.03385714	     -6.80812795	     -4.62461417	      6.88614997	      0.90180884	      0.92185878	      0.46044004	      0.63322254	     -0.25391641	    -16.62350879	     21.74807164	     21.74807164	     14.89681117	     -6.83672415	     -4.50270622	     26.67725880	     -3.38742650	      2.47701030	     24.27310505	     24.27310505	      7.60069481	    -12.40005150	      1.29450631	     -8.29569815	      0.91200903	      3.50276772	     48.17355018	    -13.75840472	     -2.72759043	     81.84281240	     45.08083743	      0.00000000	      0.00000000	      1.40452263	     -9.47536029	     -4.83789729	     41.66626051	     46.11773473	      0.00000000	      0.00000000
